999
dxfrw 0.6.3
  0
SECTION
  2
HEADER
  9
$ACADVER
  1
AC1021
  9
$DWGCODEPAGE
  3
ANSI_1252
  9
$INSBASE
 10
0
 20
0
 30
0
  9
$EXTMIN
 10
-115
 20
-115
 30
0
  9
$EXTMAX
 10
115
 20
115
 30
0
  9
$LIMMIN
 10
0
 20
0
  9
$LIMMAX
 10
420
 20
297
  9
$ORTHOMODE
 70
    0
  9
$REGENMODE
 70
    1
  9
$FILLMODE
 70
    1
  9
$QTEXTMODE
 70
    0
  9
$MIRRTEXT
 70
    0
  9
$LTSCALE
 40
1
  9
$ATTMODE
 70
    0
  9
$TEXTSIZE
 40
2.5
  9
$TRACEWID
 40
15.68
  9
$TEXTSTYLE
  7
STANDARD
  9
$CLAYER
  8
osy
  9
$CELTYPE
  6
BYLAYER
  9
$CECOLOR
 62
  256
  9
$CELTSCALE
 40
1
  9
$DISPSILH
 70
    0
  9
$DIMSCALE
 40
1
  9
$DIMASZ
 40
2.5
  9
$DIMEXO
 40
0.625
  9
$DIMDLI
 40
3.75
  9
$DIMRND
 40
0
  9
$DIMDLE
 40
0
  9
$DIMEXE
 40
1.25
  9
$DIMTP
 40
0
  9
$DIMTM
 40
0
  9
$DIMTXT
 40
2.5
  9
$DIMCEN
 40
2.5
  9
$DIMTSZ
 40
0
  9
$DIMTOL
 70
    0
  9
$DIMLIM
 70
    0
  9
$DIMTIH
 70
    0
  9
$DIMTOH
 70
    0
  9
$DIMSE1
 70
    0
  9
$DIMSE2
 70
    0
  9
$DIMTAD
 70
    1
  9
$DIMZIN
 70
    8
  9
$DIMBLK
  1

  9
$DIMASO
 70
    1
  9
$DIMSHO
 70
    1
  9
$DIMPOST
  1

  9
$DIMAPOST
  1

  9
$DIMALT
 70
    0
  9
$DIMALTD
 70
    3
  9
$DIMALTF
 40
0.03937
  9
$DIMLFAC
 40
1
  9
$DIMTOFL
 70
    1
  9
$DIMTVP
 40
0
  9
$DIMTIX
 70
    0
  9
$DIMSOXD
 70
    0
  9
$DIMSAH
 70
    0
  9
$DIMBLK1
  1

  9
$DIMBLK2
  1

  9
$DIMSTYLE
  2
STANDARD
  9
$DIMCLRD
 70
    0
  9
$DIMCLRE
 70
    0
  9
$DIMCLRT
 70
    0
  9
$DIMTFAC
 40
1
  9
$DIMGAP
 40
0.625
  9
$DIMJUST
 70
    0
  9
$DIMSD1
 70
    0
  9
$DIMSD2
 70
    0
  9
$DIMTOLJ
 70
    0
  9
$DIMTZIN
 70
    8
  9
$DIMALTZ
 70
    0
  9
$DIMALTTZ
 70
    0
  9
$DIMUPT
 70
    0
  9
$DIMDEC
 70
    2
  9
$DIMTDEC
 70
    2
  9
$DIMALTU
 70
    2
  9
$DIMALTTD
 70
    3
  9
$DIMTXSTY
  7
standard
  9
$DIMAUNIT
 70
    0
  9
$DIMADEC
 70
    1
  9
$DIMALTRND
 40
0
  9
$DIMAZIN
 70
    0
  9
$DIMDSEP
 70
   44
  9
$DIMATFIT
 70
    3
  9
$DIMFRAC
 70
    0
  9
$DIMLDRBLK
  1
STANDARD
  9
$DIMLUNIT
 70
    2
  9
$DIMLWD
 70
   -2
  9
$DIMLWE
 70
   -2
  9
$DIMTMOVE
 70
    0
  9
$DIMFXL
 40
1
  9
$DIMFXLON
 70
    0
  9
$DIMJOGANG
 40
0.7854
  9
$DIMTFILL
 70
    0
  9
$DIMTFILLCLR
 70
    0
  9
$DIMARCSYM
 70
    0
  9
$DIMLTYPE
  6

  9
$DIMLTEX1
  6

  9
$DIMLTEX2
  6

  9
$LUNITS
 70
    2
  9
$LUPREC
 70
    4
  9
$SKETCHINC
 40
1
  9
$FILLETRAD
 40
0
  9
$AUNITS
 70
    0
  9
$AUPREC
 70
    2
  9
$MENU
  1
.
  9
$ELEVATION
 40
0
  9
$PELEVATION
 40
0
  9
$THICKNESS
 40
0
  9
$LIMCHECK
 70
    0
  9
$CHAMFERA
 40
0
  9
$CHAMFERB
 40
0
  9
$CHAMFERC
 40
0
  9
$CHAMFERD
 40
0
  9
$SKPOLY
 70
    0
  9
$USRTIMER
 70
    1
  9
$ANGBASE
 50
0
  9
$ANGDIR
 70
    0
  9
$PDMODE
 70
   34
  9
$PDSIZE
 40
0
  9
$PLINEWID
 40
0
  9
$SPLFRAME
 70
    0
  9
$SPLINETYPE
 70
    2
  9
$SPLINESEGS
 70
    8
  9
$HANDSEED
  5
20000
  9
$SURFTAB1
 70
    6
  9
$SURFTAB2
 70
    6
  9
$SURFTYPE
 70
    6
  9
$SURFU
 70
    6
  9
$SURFV
 70
    6
  9
$UCSBASE
  2

  9
$UCSNAME
  2

  9
$UCSORG
 10
0
 20
0
 30
0
  9
$UCSXDIR
 10
1
 20
0
 30
0
  9
$UCSYDIR
 10
0
 20
1
 30
0
  9
$UCSORTHOREF
  2

  9
$UCSORTHOVIEW
 70
    0
  9
$UCSORGTOP
 10
0
 20
0
 30
0
  9
$UCSORGBOTTOM
 10
0
 20
0
 30
0
  9
$UCSORGLEFT
 10
0
 20
0
 30
0
  9
$UCSORGRIGHT
 10
0
 20
0
 30
0
  9
$UCSORGFRONT
 10
0
 20
0
 30
0
  9
$UCSORGBACK
 10
0
 20
0
 30
0
  9
$PUCSBASE
  2

  9
$PUCSNAME
  2

  9
$PUCSORG
 10
0
 20
0
 30
0
  9
$PUCSXDIR
 10
1
 20
0
 30
0
  9
$PUCSYDIR
 10
0
 20
1
 30
0
  9
$PUCSORTHOREF
  2

  9
$PUCSORTHOVIEW
 70
    0
  9
$PUCSORGTOP
 10
0
 20
0
 30
0
  9
$PUCSORGBOTTOM
 10
0
 20
0
 30
0
  9
$PUCSORGLEFT
 10
0
 20
0
 30
0
  9
$PUCSORGRIGHT
 10
0
 20
0
 30
0
  9
$PUCSORGFRONT
 10
0
 20
0
 30
0
  9
$PUCSORGBACK
 10
0
 20
0
 30
0
  9
$USERI1
 70
    0
  9
$USERI2
 70
    0
  9
$USERI3
 70
    0
  9
$USERI4
 70
    0
  9
$USERI5
 70
    0
  9
$USERR1
 40
0
  9
$USERR2
 40
0
  9
$USERR3
 40
0
  9
$USERR4
 40
0
  9
$USERR5
 40
0
  9
$WORLDVIEW
 70
    1
  9
$SHADEDGE
 70
    3
  9
$SHADEDIF
 70
   70
  9
$TILEMODE
 70
    1
  9
$MAXACTVP
 70
   64
  9
$PINSBASE
 10
105
 20
148.52
 30
0
  9
$PLIMCHECK
 70
    0
  9
$PEXTMIN
 10
0
 20
0
 30
0
  9
$PEXTMAX
 10
0
 20
0
 30
0
  9
$GRIDMODE
 70
    1
  9
$SNAPSTYLE
 70
    0
  9
$GRIDUNIT
 10
0
 20
0
  9
$PLIMMIN
 10
0
 20
0
  9
$PLIMMAX
 10
210
 20
297
  9
$UNITMODE
 70
    0
  9
$VISRETAIN
 70
    1
  9
$PLINEGEN
 70
    0
  9
$PSLTSCALE
 70
    1
  9
$TREEDEPTH
 70
 3020
  9
$CMLSTYLE
  2
Standard
  9
$CMLJUST
 70
    0
  9
$CMLSCALE
 40
20
  9
$PROXYGRAPHICS
 70
    1
  9
$MEASUREMENT
 70
    1
  9
$CELWEIGHT
370
   -1
  9
$ENDCAPS
280
    0
  9
$JOINSTYLE
280
    0
  9
$LWDISPLAY
290
    0
  9
$INSUNITS
 70
    4
  9
$HYPERLINKBASE
  1

  9
$STYLESHEET
  1

  9
$XEDIT
290
    1
  9
$CEPSNTYPE
380
    0
  9
$PSTYLEMODE
290
    1
  9
$EXTNAMES
290
    1
  9
$PSVPSCALE
 40
1
  9
$OLESTARTUP
290
    0
  9
$SORTENTS
280
  127
  9
$INDEXCTL
280
    0
  9
$HIDETEXT
280
    1
  9
$XCLIPFRAME
290
    0
  9
$HALOGAP
280
    0
  9
$OBSCOLOR
 70
  257
  9
$OBSLTYPE
280
    0
  9
$INTERSECTIONDISPLAY
280
    0
  9
$INTERSECTIONCOLOR
 70
  257
  9
$DIMASSOC
280
    1
  9
$PROJECTNAME
  1

  9
$CAMERADISPLAY
290
    0
  9
$LENSLENGTH
 40
50
  9
$CAMERAHEIGHT
 40
0
  9
$STEPSPERSEC
 40
2
  9
$STEPSIZE
 40
50
  9
$3DDWFPREC
 40
2
  9
$PSOLWIDTH
 40
5
  9
$PSOLHEIGHT
 40
80
  9
$LOFTANG1
 40
1.570796326794897
  9
$LOFTANG2
 40
1.570796326794897
  9
$LOFTMAG1
 40
0
  9
$LOFTMAG2
 40
0
  9
$LOFTPARAM
 70
    7
  9
$LOFTNORMALS
280
    1
  9
$LATITUDE
 40
1
  9
$LONGITUDE
 40
1
  9
$NORTHDIRECTION
 40
0
  9
$TIMEZONE
 70
-8000
  9
$LIGHTGLYPHDISPLAY
280
    1
  9
$TILEMODELIGHTSYNCH
280
    1
  9
$SOLIDHIST
280
    1
  9
$SHOWHIST
280
    1
  9
$DWFFRAME
280
    2
  9
$DGNFRAME
280
    0
  9
$REALWORLDSCALE
290
    1
  9
$INTERFERECOLOR
 62
    1
  9
$CSHADOW
280
    0
  9
$SHADOWPLANELOCATION
 40
0
  0
ENDSEC
  0
SECTION
  2
CLASSES
  0
ENDSEC
  0
SECTION
  2
TABLES
  0
TABLE
  2
VPORT
  5
8
330
0
100
AcDbSymbolTable
 70
    1
  0
VPORT
  5
31
330
2
100
AcDbSymbolTableRecord
100
AcDbViewportTableRecord
  2
*ACTIVE
 70
    0
 10
0
 20
0
 11
1
 21
1
 12
112.8410513141427
 22
59.01126408010012
 13
0
 23
0
 14
10
 24
10
 15
10
 25
10
 16
0
 26
0
 36
1
 17
0
 27
0
 37
0
 40
235.7571964956195
 41
1.913308913308913
 42
50
 43
0
 44
0
 50
0
 51
0
 71
    0
 72
  100
 73
    1
 74
    3
 75
    0
 76
    1
 77
    0
 78
    0
281
    0
 65
    1
110
0
120
0
130
0
111
1
121
0
131
0
112
0
122
1
132
0
 79
    0
146
0
348
10020
 60
    7
 61
    5
292
1
282
    1
141
0
142
0
 63
  250
421
3358443
  0
ENDTAB
  0
TABLE
  2
LTYPE
  5
5
330
0
100
AcDbSymbolTable
 70
    4
  0
LTYPE
  5
14
330
5
100
AcDbSymbolTableRecord
100
AcDbLinetypeTableRecord
  2
ByBlock
 70
    0
  3

 72
   65
 73
    0
 40
0
  0
LTYPE
  5
15
330
5
100
AcDbSymbolTableRecord
100
AcDbLinetypeTableRecord
  2
ByLayer
 70
    0
  3

 72
   65
 73
    0
 40
0
  0
LTYPE
  5
16
330
5
100
AcDbSymbolTableRecord
100
AcDbLinetypeTableRecord
  2
Continuous
 70
    0
  3
Solid line
 72
   65
 73
    0
 40
0
  0
LTYPE
  5
32
330
5
100
AcDbSymbolTableRecord
100
AcDbLinetypeTableRecord
  2
DOT
 70
    0
  3
Dot . . . . . . . . . . . . . . . . . . . . . .
 72
   65
 73
    2
 40
6.35
 49
0
 74
    0
 49
-6.35
 74
    0
  0
LTYPE
  5
33
330
5
100
AcDbSymbolTableRecord
100
AcDbLinetypeTableRecord
  2
DOTTINY
 70
    0
  3
Dot (.15x) .....................................
 72
   65
 73
    2
 40
0.9525
 49
0
 74
    0
 49
-0.9525
 74
    0
  0
LTYPE
  5
34
330
5
100
AcDbSymbolTableRecord
100
AcDbLinetypeTableRecord
  2
DOT2
 70
    0
  3
Dot (.5x) .....................................
 72
   65
 73
    2
 40
3.175
 49
0
 74
    0
 49
-3.175
 74
    0
  0
LTYPE
  5
35
330
5
100
AcDbSymbolTableRecord
100
AcDbLinetypeTableRecord
  2
DOTX2
 70
    0
  3
Dot (2x) .  .  .  .  .  .  .  .  .  .  .  .  .
 72
   65
 73
    2
 40
12.7
 49
0
 74
    0
 49
-12.7
 74
    0
  0
LTYPE
  5
36
330
5
100
AcDbSymbolTableRecord
100
AcDbLinetypeTableRecord
  2
DASHED
 70
    0
  3
Dashed _ _ _ _ _ _ _ _ _ _ _ _ _ _ _ _ _
 72
   65
 73
    2
 40
19.05
 49
12.7
 74
    0
 49
-6.35
 74
    0
  0
LTYPE
  5
37
330
5
100
AcDbSymbolTableRecord
100
AcDbLinetypeTableRecord
  2
DASHEDTINY
 70
    0
  3
Dashed (.15x) _ _ _ _ _ _ _ _ _ _ _ _ _ _ _ _ _
 72
   65
 73
    2
 40
2.8575
 49
1.905
 74
    0
 49
-0.9525
 74
    0
  0
LTYPE
  5
38
330
5
100
AcDbSymbolTableRecord
100
AcDbLinetypeTableRecord
  2
DASHED2
 70
    0
  3
Dashed (.5x) _ _ _ _ _ _ _ _ _ _ _ _ _ _ _ _ _
 72
   65
 73
    2
 40
9.524999999999999
 49
6.35
 74
    0
 49
-3.175
 74
    0
  0
LTYPE
  5
39
330
5
100
AcDbSymbolTableRecord
100
AcDbLinetypeTableRecord
  2
DASHEDX2
 70
    0
  3
Dashed (2x) ____  ____  ____  ____  ____  ___
 72
   65
 73
    2
 40
38.09999999999999
 49
25.4
 74
    0
 49
-12.7
 74
    0
  0
LTYPE
  5
3A
330
5
100
AcDbSymbolTableRecord
100
AcDbLinetypeTableRecord
  2
DASHDOT
 70
    0
  3
Dash dot __ . __ . __ . __ . __ . __ . __ . __
 72
   65
 73
    4
 40
25.4
 49
12.7
 74
    0
 49
-6.35
 74
    0
 49
0
 74
    0
 49
-6.35
 74
    0
  0
LTYPE
  5
3B
330
5
100
AcDbSymbolTableRecord
100
AcDbLinetypeTableRecord
  2
DASHDOTTINY
 70
    0
  3
Dash dot (.15x) _._._._._._._._._._._._._._._.
 72
   65
 73
    4
 40
3.81
 49
1.905
 74
    0
 49
-0.9525
 74
    0
 49
0
 74
    0
 49
-0.9525
 74
    0
  0
LTYPE
  5
3C
330
5
100
AcDbSymbolTableRecord
100
AcDbLinetypeTableRecord
  2
DASHDOT2
 70
    0
  3
Dash dot (.5x) _._._._._._._._._._._._._._._.
 72
   65
 73
    4
 40
12.7
 49
6.35
 74
    0
 49
-3.175
 74
    0
 49
0
 74
    0
 49
-3.175
 74
    0
  0
LTYPE
  5
3D
330
5
100
AcDbSymbolTableRecord
100
AcDbLinetypeTableRecord
  2
DASHDOTX2
 70
    0
  3
Dash dot (2x) ____  .  ____  .  ____  .  ___
 72
   65
 73
    4
 40
50.8
 49
25.4
 74
    0
 49
-12.7
 74
    0
 49
0
 74
    0
 49
-12.7
 74
    0
  0
LTYPE
  5
3E
330
5
100
AcDbSymbolTableRecord
100
AcDbLinetypeTableRecord
  2
DIVIDE
 70
    0
  3
Divide ____ . . ____ . . ____ . . ____ . . ____
 72
   65
 73
    6
 40
31.75
 49
12.7
 74
    0
 49
-6.35
 74
    0
 49
0
 74
    0
 49
-6.35
 74
    0
 49
0
 74
    0
 49
-6.35
 74
    0
  0
LTYPE
  5
3F
330
5
100
AcDbSymbolTableRecord
100
AcDbLinetypeTableRecord
  2
DIVIDETINY
 70
    0
  3
Divide (.15x) __..__..__..__..__..__..__..__.._
 72
   65
 73
    6
 40
4.7625
 49
1.905
 74
    0
 49
-0.9525
 74
    0
 49
0
 74
    0
 49
-0.9525
 74
    0
 49
0
 74
    0
 49
-0.9525
 74
    0
  0
LTYPE
  5
40
330
5
100
AcDbSymbolTableRecord
100
AcDbLinetypeTableRecord
  2
DIVIDE2
 70
    0
  3
Divide (.5x) __..__..__..__..__..__..__..__.._
 72
   65
 73
    6
 40
15.875
 49
6.35
 74
    0
 49
-3.175
 74
    0
 49
0
 74
    0
 49
-3.175
 74
    0
 49
0
 74
    0
 49
-3.175
 74
    0
  0
LTYPE
  5
41
330
5
100
AcDbSymbolTableRecord
100
AcDbLinetypeTableRecord
  2
DIVIDEX2
 70
    0
  3
Divide (2x) ________  .  .  ________  .  .  _
 72
   65
 73
    6
 40
63.5
 49
25.4
 74
    0
 49
-12.7
 74
    0
 49
0
 74
    0
 49
-12.7
 74
    0
 49
0
 74
    0
 49
-12.7
 74
    0
  0
LTYPE
  5
42
330
5
100
AcDbSymbolTableRecord
100
AcDbLinetypeTableRecord
  2
BORDER
 70
    0
  3
Border __ __ . __ __ . __ __ . __ __ . __ __ .
 72
   65
 73
    6
 40
44.45
 49
12.7
 74
    0
 49
-6.35
 74
    0
 49
12.7
 74
    0
 49
-6.35
 74
    0
 49
0
 74
    0
 49
-6.35
 74
    0
  0
LTYPE
  5
43
330
5
100
AcDbSymbolTableRecord
100
AcDbLinetypeTableRecord
  2
BORDERTINY
 70
    0
  3
Border (.15x) __.__.__.__.__.__.__.__.__.__.__.
 72
   65
 73
    6
 40
6.6675
 49
1.905
 74
    0
 49
-0.9525
 74
    0
 49
1.905
 74
    0
 49
-0.9525
 74
    0
 49
0
 74
    0
 49
-0.9525
 74
    0
  0
LTYPE
  5
44
330
5
100
AcDbSymbolTableRecord
100
AcDbLinetypeTableRecord
  2
BORDER2
 70
    0
  3
Border (.5x) __.__.__.__.__.__.__.__.__.__.__.
 72
   65
 73
    6
 40
22.225
 49
6.35
 74
    0
 49
-3.175
 74
    0
 49
6.35
 74
    0
 49
-3.175
 74
    0
 49
0
 74
    0
 49
-3.175
 74
    0
  0
LTYPE
  5
45
330
5
100
AcDbSymbolTableRecord
100
AcDbLinetypeTableRecord
  2
BORDERX2
 70
    0
  3
Border (2x) ____  ____  .  ____  ____  .  ___
 72
   65
 73
    6
 40
88.89999999999999
 49
25.4
 74
    0
 49
-12.7
 74
    0
 49
25.4
 74
    0
 49
-12.7
 74
    0
 49
0
 74
    0
 49
-12.7
 74
    0
  0
LTYPE
  5
46
330
5
100
AcDbSymbolTableRecord
100
AcDbLinetypeTableRecord
  2
CENTER
 70
    0
  3
Center ____ _ ____ _ ____ _ ____ _ ____ _ ____
 72
   65
 73
    4
 40
50.8
 49
31.75
 74
    0
 49
-6.35
 74
    0
 49
6.35
 74
    0
 49
-6.35
 74
    0
  0
LTYPE
  5
47
330
5
100
AcDbSymbolTableRecord
100
AcDbLinetypeTableRecord
  2
CENTERTINY
 70
    0
  3
Center (.15x) ___ _ ___ _ ___ _ ___ _ ___ _ ___
 72
   65
 73
    4
 40
7.62
 49
4.7625
 74
    0
 49
-0.9525
 74
    0
 49
0.9525
 74
    0
 49
-0.9525
 74
    0
  0
LTYPE
  5
48
330
5
100
AcDbSymbolTableRecord
100
AcDbLinetypeTableRecord
  2
CENTER2
 70
    0
  3
Center (.5x) ___ _ ___ _ ___ _ ___ _ ___ _ ___
 72
   65
 73
    4
 40
28.575
 49
19.05
 74
    0
 49
-3.175
 74
    0
 49
3.175
 74
    0
 49
-3.175
 74
    0
  0
LTYPE
  5
49
330
5
100
AcDbSymbolTableRecord
100
AcDbLinetypeTableRecord
  2
CENTERX2
 70
    0
  3
Center (2x) ________  __  ________  __  _____
 72
   65
 73
    4
 40
101.6
 49
63.5
 74
    0
 49
-12.7
 74
    0
 49
12.7
 74
    0
 49
-12.7
 74
    0
  0
ENDTAB
  0
TABLE
  2
LAYER
  5
2
330
0
100
AcDbSymbolTable
 70
    1
  0
LAYER
  5
10
330
2
100
AcDbSymbolTableRecord
100
AcDbLayerTableRecord
  2
0
 70
    1
 62
    7
  6
CONTINUOUS
290
0
370
    0
390
F
  0
LAYER
  5
4A
330
2
100
AcDbSymbolTableRecord
100
AcDbLayerTableRecord
  2
koty
 70
    0
 62
    3
  6
CONTINUOUS
370
   25
390
F
  0
LAYER
  5
4B
330
2
100
AcDbSymbolTableRecord
100
AcDbLayerTableRecord
  2
obrysy
 70
    0
 62
    7
  6
CONTINUOUS
370
  100
390
F
  0
LAYER
  5
4C
330
2
100
AcDbSymbolTableRecord
100
AcDbLayerTableRecord
  2
osy
 70
    0
 62
    6
  6
DASHDOTTINY
370
   25
390
F
  0
ENDTAB
  0
TABLE
  2
STYLE
  5
3
330
0
100
AcDbSymbolTable
 70
    3
  0
STYLE
  5
4D
330
2
100
AcDbSymbolTableRecord
100
AcDbTextStyleTableRecord
  2
Standard
 70
    0
 40
0
 41
1
 50
0
 71
    0
 42
1
  3
txt
  4

  0
ENDTAB
  0
TABLE
  2
VIEW
  5
6
330
0
100
AcDbSymbolTable
 70
    0
  0
ENDTAB
  0
TABLE
  2
UCS
  5
7
330
0
100
AcDbSymbolTable
 70
    0
  0
ENDTAB
  0
TABLE
  2
APPID
  5
9
330
0
100
AcDbSymbolTable
 70
    1
  0
APPID
  5
12
330
9
100
AcDbSymbolTableRecord
100
AcDbRegAppTableRecord
  2
ACAD
 70
    0
  0
APPID
  5
4E
330
9
100
AcDbSymbolTableRecord
100
AcDbRegAppTableRecord
  2
LibreCad
 70
    0
  0
ENDTAB
  0
TABLE
  2
DIMSTYLE
  5
A
330
0
100
AcDbSymbolTable
 70
    1
100
AcDbDimStyleTable
 71
    1
  0
DIMSTYLE
105
4F
330
A
100
AcDbSymbolTableRecord
100
AcDbDimStyleTableRecord
  2
Standard
 70
    0
 40
1
 41
2.5
 42
0.625
 43
0.38
 44
1.25
 45
0
 46
0
 47
0
 48
0
 49
1
140
2.5
141
0.09
142
0
143
25.4
144
1
145
0
146
1
147
0.625
148
0
 71
    0
 72
    0
 73
    0
 74
    1
 75
    0
 76
    0
 77
    0
 78
    8
 79
    0
170
    0
171
    2
172
    0
173
    0
174
    0
175
    0
176
    0
177
    0
178
    0
179
    1
271
    2
272
    4
273
    2
274
    2
275
    0
276
    0
277
    2
278
   44
279
    0
280
    0
281
    0
282
    0
283
    1
284
    0
285
    0
286
    0
288
    0
289
    3
340
standard
341

371
   -2
372
   -2
  0
ENDTAB
  0
TABLE
  2
BLOCK_RECORD
  5
1
330
0
100
AcDbSymbolTable
 70
    2
  0
BLOCK_RECORD
  5
1F
330
1
100
AcDbSymbolTableRecord
100
AcDbBlockTableRecord
  2
*Model_Space
 70
    0
280
    1
281
    0
  0
BLOCK_RECORD
  5
1E
330
1
100
AcDbSymbolTableRecord
100
AcDbBlockTableRecord
  2
*Paper_Space
 70
    0
280
    1
281
    0
  0
BLOCK_RECORD
  5
50
330
1
100
AcDbSymbolTableRecord
100
AcDbBlockTableRecord
  2
*D1
 70
    0
280
    1
281
    0
  0
BLOCK_RECORD
  5
53
330
1
100
AcDbSymbolTableRecord
100
AcDbBlockTableRecord
  2
*D4
 70
    0
280
    1
281
    0
  0
BLOCK_RECORD
  5
56
330
1
100
AcDbSymbolTableRecord
100
AcDbBlockTableRecord
  2
*D2
 70
    0
280
    1
281
    0
  0
BLOCK_RECORD
  5
59
330
1
100
AcDbSymbolTableRecord
100
AcDbBlockTableRecord
  2
*D3
 70
    0
280
    1
281
    0
  0
BLOCK_RECORD
  5
5C
330
1
100
AcDbSymbolTableRecord
100
AcDbBlockTableRecord
  2
*D5
 70
    0
280
    1
281
    0
  0
ENDTAB
  0
ENDSEC
  0
SECTION
  2
BLOCKS
  0
BLOCK
  5
20
330
1F
100
AcDbEntity
  8
0
100
AcDbBlockBegin
  2
*Model_Space
 70
    0
 10
0
 20
0
 30
0
  3
*Model_Space
  1

  0
ENDBLK
  5
21
330
1F
100
AcDbEntity
  8
0
100
AcDbBlockEnd
  0
BLOCK
  5
1C
330
1B
100
AcDbEntity
  8
0
100
AcDbBlockBegin
  2
*Paper_Space
 70
    0
 10
0
 20
0
 30
0
  3
*Paper_Space
  1

  0
ENDBLK
  5
1D
330
1F
100
AcDbEntity
  8
0
100
AcDbBlockEnd
  0
BLOCK
  5
51
330
50
100
AcDbEntity
  8
0
100
AcDbBlockBegin
  2
*D1
 70
    1
 10
0
 20
0
  3
*D1
  1

  0
LINE
  5
5F
100
AcDbEntity
  8
koty
  6
ByBlock
 62
    0
370
   -2
100
AcDbLine
 10
-20.45985016440736
 20
-11.8125
 11
-29.76615077325749
 21
-17.18549516167919
  0
ARC
  5
60
100
AcDbEntity
  8
koty
  6
ByBlock
 62
    0
370
   -2
100
AcDbCircle
 10
0
 20
0
 40
33.12099032335839
100
AcDbArc
 50
90
 51
210
  0
SOLID
  5
61
100
AcDbEntity
  8
koty
  6
ByBlock
 62
    0
370
   -2
100
AcDbTrace
 10
2.028008759743708e-15
 20
33.12099032335839
 30
0
 11
-2.482512759994747
 21
32.61067344850483
 31
0
 12
-2.513926814873107
 22
33.44264990390744
 32
0
 13
-2.513926814873107
 23
33.44264990390744
 33
0
  0
SOLID
  5
62
100
AcDbEntity
  8
koty
  6
ByBlock
 62
    0
370
   -2
100
AcDbTrace
 10
-28.68361901852694
 20
-16.56049516167919
 30
0
 11
-30.21914779408963
 21
-14.5442004670187
 31
0
 12
-29.48292802092125
 22
-14.15541760887793
 32
0
 13
-29.48292802092125
 23
-14.15541760887793
 33
0
  0
MTEXT
  5
63
100
AcDbEntity
  8
koty
  6
CONTINUOUS
 62
    0
370
   -2
100
AcDbMText
 10
-29.2248848958922
 20
16.87299516167921
 30
0
 40
2.5
 41
9.027777777777779
 71
    8
 72
    1
  1
120,0%%D
  7
standard
210
0
220
0
230
1
 50
420
 73
    2
 44
1
  0
ENDBLK
  5
52
330
50
100
AcDbEntity
  8
0
100
AcDbBlockEnd
  0
BLOCK
  5
54
330
53
100
AcDbEntity
  8
0
100
AcDbBlockBegin
  2
*D4
 70
    1
 10
0
 20
0
  3
*D4
  1

  0
LINE
  5
64
100
AcDbEntity
  8
koty
  6
ByBlock
 62
    0
370
   -2
100
AcDbLine
 10
40
 20
19.99999999999999
 11
40
 21
-20
  0
MTEXT
  5
65
100
AcDbEntity
  8
koty
  6
CONTINUOUS
 62
    0
370
   -2
100
AcDbMText
 10
38
 20
6
 30
0
 40
2.5
 41
5.833333333333334
 71
    5
 72
    1
  1
%%C40
  7
standard
210
0
220
0
230
1
 50
90
 73
    2
 44
1
  0
SOLID
  5
66
100
AcDbEntity
  8
koty
  6
ByBlock
 62
    0
370
   -2
100
AcDbTrace
 10
40
 20
19.99999999999999
 30
0
 11
40.41628465777284
 21
17.49999999999999
 31
0
 12
39.58371534222716
 22
17.49999999999999
 32
0
 13
39.58371534222716
 23
17.49999999999999
 33
0
  0
SOLID
  5
67
100
AcDbEntity
  8
koty
  6
ByBlock
 62
    0
370
   -2
100
AcDbTrace
 10
40
 20
-20
 30
0
 11
39.58371534222716
 21
-17.5
 31
0
 12
40.41628465777284
 22
-17.5
 32
0
 13
40.41628465777284
 23
-17.5
 33
0
  0
LINE
  5
68
100
AcDbEntity
  8
koty
  6
ByBlock
 62
    0
370
   -2
100
AcDbLine
 10
0.625
 20
20
 11
41.25
 21
19.99999999999999
  0
LINE
  5
69
100
AcDbEntity
  8
koty
  6
ByBlock
 62
    0
370
   -2
100
AcDbLine
 10
0.625
 20
-20
 11
41.25
 21
-20
  0
ENDBLK
  5
55
330
53
100
AcDbEntity
  8
0
100
AcDbBlockEnd
  0
BLOCK
  5
57
330
56
100
AcDbEntity
  8
0
100
AcDbBlockBegin
  2
*D2
 70
    1
 10
0
 20
0
  3
*D2
  1

  0
LINE
  5
6A
100
AcDbEntity
  8
koty
  6
ByBlock
 62
    0
370
   -2
100
AcDbLine
 10
-20.45985016440736
 20
-11.8125
 11
-29.77739192166637
 21
-17.19198524173905
  0
LINE
  5
6B
100
AcDbEntity
  8
koty
  6
ByBlock
 62
    0
370
   -2
100
AcDbLine
 10
20.45985016440736
 20
-11.8125
 11
29.77739192166636
 21
-17.19198524173908
  0
ARC
  5
6C
100
AcDbEntity
  8
koty
  6
ByBlock
 62
    0
370
   -2
100
AcDbCircle
 10
0
 20
0
 40
33.13397048347813
100
AcDbArc
 50
210
 51
330
  0
SOLID
  5
6D
100
AcDbEntity
  8
koty
  6
ByBlock
 62
    0
370
   -2
100
AcDbTrace
 10
-28.69486016693583
 20
-16.56698524173905
 30
0
 11
-27.01168442303601
 21
-18.46177080518531
 31
0
 12
-27.71649669374471
 22
-18.90495398203959
 32
0
 13
-27.71649669374471
 23
-18.90495398203959
 33
0
  0
SOLID
  5
6E
100
AcDbEntity
  8
koty
  6
ByBlock
 62
    0
370
   -2
100
AcDbTrace
 10
28.69486016693581
 20
-16.56698524173908
 30
0
 11
27.7164966937447
 21
-18.90495398203961
 31
0
 12
27.011684423036
 22
-18.46177080518534
 32
0
 13
27.011684423036
 23
-18.46177080518534
 33
0
  0
MTEXT
  5
6F
100
AcDbEntity
  8
koty
  6
CONTINUOUS
 62
    0
370
   -2
100
AcDbMText
 10
-5.90936379057947e-15
 20
-32.50897048347813
 30
0
 40
2.5
 41
9.027777777777779
 71
    8
 72
    1
  1
120,0%%D
  7
standard
210
0
220
0
230
1
 50
-1.272221872585407e-14
 73
    2
 44
1
  0
ENDBLK
  5
58
330
56
100
AcDbEntity
  8
0
100
AcDbBlockEnd
  0
BLOCK
  5
5A
330
59
100
AcDbEntity
  8
0
100
AcDbBlockBegin
  2
*D3
 70
    1
 10
0
 20
0
  3
*D3
  1

  0
LINE
  5
70
100
AcDbEntity
  8
koty
  6
ByBlock
 62
    0
370
   -2
100
AcDbLine
 10
-5.741147030931122
 20
-3.82743135395408
 11
5.741147030931122
 21
3.82743135395408
  0
MTEXT
  5
71
100
AcDbEntity
  8
koty
  6
CONTINUOUS
 62
    0
370
   -2
100
AcDbMText
 10
2.678739697604335
 20
4.03929601223455
 30
0
 40
2.5
 41
3.888888888888889
 71
    5
 72
    1
  1
%%C4
  7
standard
210
0
220
0
230
1
 50
33.69006752597978
 73
    2
 44
1
  0
SOLID
  5
72
100
AcDbEntity
  8
koty
  6
ByBlock
 62
    0
370
   -2
100
AcDbTrace
 10
-1.580895559241903
 20
-1.053930372827935
 30
0
 11
-3.430108113734366
 21
-2.787050635419228
 31
0
 12
-3.89193447643866
 22
-2.094311091362787
 32
0
 13
-3.89193447643866
 23
-2.094311091362787
 33
0
  0
SOLID
  5
73
100
AcDbEntity
  8
koty
  6
ByBlock
 62
    0
370
   -2
100
AcDbTrace
 10
1.580895559241903
 20
1.053930372827935
 30
0
 11
3.430108113734366
 21
2.787050635419228
 31
0
 12
3.89193447643866
 22
2.094311091362787
 32
0
 13
3.89193447643866
 23
2.094311091362787
 33
0
  0
ENDBLK
  5
5B
330
59
100
AcDbEntity
  8
0
100
AcDbBlockEnd
  0
BLOCK
  5
5D
330
5C
100
AcDbEntity
  8
0
100
AcDbBlockBegin
  2
*D5
 70
    1
 10
0
 20
0
  3
*D5
  1

  0
LINE
  5
74
100
AcDbEntity
  8
koty
  6
ByBlock
 62
    0
370
   -2
100
AcDbLine
 10
-4.242640687119281
 20
15.75735931288071
 11
4.242640687119281
 21
24.24264068711929
  0
MTEXT
  5
75
100
AcDbEntity
  8
koty
  6
CONTINUOUS
 62
    0
370
   -2
100
AcDbMText
 10
2.425769096570515
 20
25.42576909657052
 30
0
 40
2.5
 41
3.611111111111111
 71
    5
 72
    1
  1
%%C2
  7
standard
210
0
220
0
230
1
 50
45.00000000000009
 73
    2
 44
1
  0
SOLID
  5
76
100
AcDbEntity
  8
koty
  6
ByBlock
 62
    0
370
   -2
100
AcDbTrace
 10
-0.7071067811865477
 20
19.29289321881345
 30
0
 11
-2.180516029737817
 21
17.23076856143198
 31
0
 12
-2.769231438568011
 22
17.81948397026218
 32
0
 13
-2.769231438568011
 23
17.81948397026218
 33
0
  0
SOLID
  5
77
100
AcDbEntity
  8
koty
  6
ByBlock
 62
    0
370
   -2
100
AcDbTrace
 10
0.7071067811865476
 20
20.70710678118655
 30
0
 11
2.180516029737818
 21
22.76923143856802
 31
0
 12
2.769231438568011
 22
22.18051602973782
 32
0
 13
2.769231438568011
 23
22.18051602973782
 33
0
  0
ENDBLK
  5
5E
330
5C
100
AcDbEntity
  8
0
100
AcDbBlockEnd
  0
ENDSEC
  0
SECTION
  2
ENTITIES
  0
CIRCLE
  5
78
100
AcDbEntity
  8
obrysy
  6
ByLayer
 62
  256
370
   -1
100
AcDbCircle
 10
0
 20
0
 40
112.5
  0
CIRCLE
  5
79
100
AcDbEntity
  8
obrysy
  6
ByLayer
 62
  256
370
   -1
100
AcDbCircle
 10
0
 20
106.5
 40
4.5
  0
CIRCLE
  5
7A
100
AcDbEntity
  8
obrysy
  6
ByLayer
 62
  256
370
   -1
100
AcDbCircle
 10
-11.92421670500229
 20
105.8303503536303
 40
4.5
  0
CIRCLE
  5
7B
100
AcDbEntity
  8
obrysy
  6
ByLayer
 62
  256
370
   -1
100
AcDbCircle
 10
-23.69847946634748
 20
103.8298226473642
 40
4.5
  0
CIRCLE
  5
7C
100
AcDbEntity
  8
obrysy
  6
ByLayer
 62
  256
370
   -1
100
AcDbCircle
 10
-35.17472009822529
 20
100.5235746778411
 40
4.5
  0
CIRCLE
  5
7D
100
AcDbEntity
  8
obrysy
  6
ByLayer
 62
  256
370
   -1
100
AcDbCircle
 10
-46.20861821601994
 20
95.95318443160764
 40
4.5
  0
CIRCLE
  5
7E
100
AcDbEntity
  8
obrysy
  6
ByLayer
 62
  256
370
   -1
100
AcDbCircle
 10
-56.66141614888335
 20
90.17612721781227
 40
4.5
  0
CIRCLE
  5
7F
100
AcDbEntity
  8
obrysy
  6
ByLayer
 62
  256
370
   -1
100
AcDbCircle
 10
-66.40166389795512
 20
83.26505288284517
 40
4.5
  0
CIRCLE
  5
80
100
AcDbEntity
  8
obrysy
  6
ByLayer
 62
  256
370
   -1
100
AcDbCircle
 10
-75.30687219636731
 20
75.30687219636732
 40
4.5
  0
CIRCLE
  5
81
100
AcDbEntity
  8
obrysy
  6
ByLayer
 62
  256
370
   -1
100
AcDbCircle
 10
-83.26505288284517
 20
66.40166389795513
 40
4.5
  0
CIRCLE
  5
82
100
AcDbEntity
  8
obrysy
  6
ByLayer
 62
  256
370
   -1
100
AcDbCircle
 10
-90.17612721781227
 20
56.66141614888335
 40
4.5
  0
CIRCLE
  5
83
100
AcDbEntity
  8
obrysy
  6
ByLayer
 62
  256
370
   -1
100
AcDbCircle
 10
-95.95318443160764
 20
46.20861821601994
 40
4.5
  0
CIRCLE
  5
84
100
AcDbEntity
  8
obrysy
  6
ByLayer
 62
  256
370
   -1
100
AcDbCircle
 10
-100.5235746778411
 20
35.1747200982253
 40
4.5
  0
CIRCLE
  5
85
100
AcDbEntity
  8
obrysy
  6
ByLayer
 62
  256
370
   -1
100
AcDbCircle
 10
-103.8298226473642
 20
23.69847946634749
 40
4.5
  0
CIRCLE
  5
86
100
AcDbEntity
  8
obrysy
  6
ByLayer
 62
  256
370
   -1
100
AcDbCircle
 10
-105.8303503536303
 20
11.92421670500229
 40
4.5
  0
CIRCLE
  5
87
100
AcDbEntity
  8
obrysy
  6
ByLayer
 62
  256
370
   -1
100
AcDbCircle
 10
-106.5
 20
6.521028834104159e-15
 40
4.5
  0
CIRCLE
  5
88
100
AcDbEntity
  8
obrysy
  6
ByLayer
 62
  256
370
   -1
100
AcDbCircle
 10
-105.8303503536303
 20
-11.92421670500228
 40
4.5
  0
CIRCLE
  5
89
100
AcDbEntity
  8
obrysy
  6
ByLayer
 62
  256
370
   -1
100
AcDbCircle
 10
-103.8298226473642
 20
-23.69847946634748
 40
4.5
  0
CIRCLE
  5
8A
100
AcDbEntity
  8
obrysy
  6
ByLayer
 62
  256
370
   -1
100
AcDbCircle
 10
-100.5235746778411
 20
-35.17472009822529
 40
4.5
  0
CIRCLE
  5
8B
100
AcDbEntity
  8
obrysy
  6
ByLayer
 62
  256
370
   -1
100
AcDbCircle
 10
-95.95318443160764
 20
-46.20861821601994
 40
4.5
  0
CIRCLE
  5
8C
100
AcDbEntity
  8
obrysy
  6
ByLayer
 62
  256
370
   -1
100
AcDbCircle
 10
-90.17612721781227
 20
-56.66141614888333
 40
4.5
  0
CIRCLE
  5
8D
100
AcDbEntity
  8
obrysy
  6
ByLayer
 62
  256
370
   -1
100
AcDbCircle
 10
-83.26505288284518
 20
-66.40166389795512
 40
4.5
  0
CIRCLE
  5
8E
100
AcDbEntity
  8
obrysy
  6
ByLayer
 62
  256
370
   -1
100
AcDbCircle
 10
-75.30687219636732
 20
-75.30687219636731
 40
4.5
  0
CIRCLE
  5
8F
100
AcDbEntity
  8
obrysy
  6
ByLayer
 62
  256
370
   -1
100
AcDbCircle
 10
-66.40166389795513
 20
-83.26505288284517
 40
4.5
  0
CIRCLE
  5
90
100
AcDbEntity
  8
obrysy
  6
ByLayer
 62
  256
370
   -1
100
AcDbCircle
 10
-56.66141614888335
 20
-90.17612721781227
 40
4.5
  0
CIRCLE
  5
91
100
AcDbEntity
  8
obrysy
  6
ByLayer
 62
  256
370
   -1
100
AcDbCircle
 10
-46.20861821601995
 20
-95.95318443160762
 40
4.5
  0
CIRCLE
  5
92
100
AcDbEntity
  8
obrysy
  6
ByLayer
 62
  256
370
   -1
100
AcDbCircle
 10
-35.17472009822531
 20
-100.5235746778411
 40
4.5
  0
CIRCLE
  5
93
100
AcDbEntity
  8
obrysy
  6
ByLayer
 62
  256
370
   -1
100
AcDbCircle
 10
-23.69847946634749
 20
-103.8298226473642
 40
4.5
  0
CIRCLE
  5
94
100
AcDbEntity
  8
obrysy
  6
ByLayer
 62
  256
370
   -1
100
AcDbCircle
 10
-11.9242167050023
 20
-105.8303503536303
 40
4.5
  0
CIRCLE
  5
95
100
AcDbEntity
  8
obrysy
  6
ByLayer
 62
  256
370
   -1
100
AcDbCircle
 10
-1.304205766820832e-14
 20
-106.5
 40
4.5
  0
CIRCLE
  5
96
100
AcDbEntity
  8
obrysy
  6
ByLayer
 62
  256
370
   -1
100
AcDbCircle
 10
11.92421670500227
 20
-105.8303503536303
 40
4.5
  0
CIRCLE
  5
97
100
AcDbEntity
  8
obrysy
  6
ByLayer
 62
  256
370
   -1
100
AcDbCircle
 10
23.69847946634747
 20
-103.8298226473642
 40
4.5
  0
CIRCLE
  5
98
100
AcDbEntity
  8
obrysy
  6
ByLayer
 62
  256
370
   -1
100
AcDbCircle
 10
35.17472009822528
 20
-100.5235746778411
 40
4.5
  0
CIRCLE
  5
99
100
AcDbEntity
  8
obrysy
  6
ByLayer
 62
  256
370
   -1
100
AcDbCircle
 10
46.20861821601993
 20
-95.95318443160764
 40
4.5
  0
CIRCLE
  5
9A
100
AcDbEntity
  8
obrysy
  6
ByLayer
 62
  256
370
   -1
100
AcDbCircle
 10
56.66141614888333
 20
-90.17612721781227
 40
4.5
  0
CIRCLE
  5
9B
100
AcDbEntity
  8
obrysy
  6
ByLayer
 62
  256
370
   -1
100
AcDbCircle
 10
66.4016638979551
 20
-83.26505288284518
 40
4.5
  0
CIRCLE
  5
9C
100
AcDbEntity
  8
obrysy
  6
ByLayer
 62
  256
370
   -1
100
AcDbCircle
 10
75.30687219636731
 20
-75.30687219636732
 40
4.5
  0
CIRCLE
  5
9D
100
AcDbEntity
  8
obrysy
  6
ByLayer
 62
  256
370
   -1
100
AcDbCircle
 10
83.26505288284517
 20
-66.40166389795515
 40
4.5
  0
CIRCLE
  5
9E
100
AcDbEntity
  8
obrysy
  6
ByLayer
 62
  256
370
   -1
100
AcDbCircle
 10
90.17612721781227
 20
-56.66141614888335
 40
4.5
  0
CIRCLE
  5
9F
100
AcDbEntity
  8
obrysy
  6
ByLayer
 62
  256
370
   -1
100
AcDbCircle
 10
95.95318443160762
 20
-46.20861821601996
 40
4.5
  0
CIRCLE
  5
A0
100
AcDbEntity
  8
obrysy
  6
ByLayer
 62
  256
370
   -1
100
AcDbCircle
 10
100.5235746778411
 20
-35.17472009822531
 40
4.5
  0
CIRCLE
  5
A1
100
AcDbEntity
  8
obrysy
  6
ByLayer
 62
  256
370
   -1
100
AcDbCircle
 10
103.8298226473642
 20
-23.6984794663475
 40
4.5
  0
CIRCLE
  5
A2
100
AcDbEntity
  8
obrysy
  6
ByLayer
 62
  256
370
   -1
100
AcDbCircle
 10
105.8303503536303
 20
-11.92421670500231
 40
4.5
  0
CIRCLE
  5
A3
100
AcDbEntity
  8
obrysy
  6
ByLayer
 62
  256
370
   -1
100
AcDbCircle
 10
106.5
 20
-1.956308650231248e-14
 40
4.5
  0
CIRCLE
  5
A4
100
AcDbEntity
  8
obrysy
  6
ByLayer
 62
  256
370
   -1
100
AcDbCircle
 10
105.8303503536303
 20
11.92421670500227
 40
4.5
  0
CIRCLE
  5
A5
100
AcDbEntity
  8
obrysy
  6
ByLayer
 62
  256
370
   -1
100
AcDbCircle
 10
103.8298226473642
 20
23.69847946634746
 40
4.5
  0
CIRCLE
  5
A6
100
AcDbEntity
  8
obrysy
  6
ByLayer
 62
  256
370
   -1
100
AcDbCircle
 10
100.5235746778411
 20
35.17472009822527
 40
4.5
  0
CIRCLE
  5
A7
100
AcDbEntity
  8
obrysy
  6
ByLayer
 62
  256
370
   -1
100
AcDbCircle
 10
95.95318443160765
 20
46.20861821601992
 40
4.5
  0
CIRCLE
  5
A8
100
AcDbEntity
  8
obrysy
  6
ByLayer
 62
  256
370
   -1
100
AcDbCircle
 10
90.17612721781227
 20
56.66141614888332
 40
4.5
  0
CIRCLE
  5
A9
100
AcDbEntity
  8
obrysy
  6
ByLayer
 62
  256
370
   -1
100
AcDbCircle
 10
83.26505288284518
 20
66.4016638979551
 40
4.5
  0
CIRCLE
  5
AA
100
AcDbEntity
  8
obrysy
  6
ByLayer
 62
  256
370
   -1
100
AcDbCircle
 10
75.30687219636732
 20
75.30687219636729
 40
4.5
  0
CIRCLE
  5
AB
100
AcDbEntity
  8
obrysy
  6
ByLayer
 62
  256
370
   -1
100
AcDbCircle
 10
66.40166389795515
 20
83.26505288284517
 40
4.5
  0
CIRCLE
  5
AC
100
AcDbEntity
  8
obrysy
  6
ByLayer
 62
  256
370
   -1
100
AcDbCircle
 10
56.66141614888337
 20
90.17612721781225
 40
4.5
  0
CIRCLE
  5
AD
100
AcDbEntity
  8
obrysy
  6
ByLayer
 62
  256
370
   -1
100
AcDbCircle
 10
46.20861821601996
 20
95.95318443160762
 40
4.5
  0
CIRCLE
  5
AE
100
AcDbEntity
  8
obrysy
  6
ByLayer
 62
  256
370
   -1
100
AcDbCircle
 10
35.17472009822532
 20
100.5235746778411
 40
4.5
  0
CIRCLE
  5
AF
100
AcDbEntity
  8
obrysy
  6
ByLayer
 62
  256
370
   -1
100
AcDbCircle
 10
23.69847946634751
 20
103.8298226473642
 40
4.5
  0
CIRCLE
  5
B0
100
AcDbEntity
  8
obrysy
  6
ByLayer
 62
  256
370
   -1
100
AcDbCircle
 10
11.92421670500231
 20
105.8303503536303
 40
4.5
  0
CIRCLE
  5
B1
100
AcDbEntity
  8
obrysy
  6
ByLayer
 62
  256
370
   -1
100
AcDbCircle
 10
2.608411533641664e-14
 20
106.5
 40
4.5
  0
LINE
  5
B2
100
AcDbEntity
  8
osy
  6
ByLayer
 62
  256
370
   -1
100
AcDbLine
 10
-115
 20
0
 11
115
 21
0
  0
CIRCLE
  5
B3
100
AcDbEntity
  8
obrysy
  6
ByLayer
 62
  256
370
   -1
100
AcDbCircle
 10
0
 20
0
 40
1.9
  0
CIRCLE
  5
B4
100
AcDbEntity
  8
obrysy
  6
ByLayer
 62
  256
370
   -1
100
AcDbCircle
 10
0
 20
20
 40
1
  0
CIRCLE
  5
B5
100
AcDbEntity
  8
osy
  6
ByLayer
 62
  256
370
   -1
100
AcDbCircle
 10
0
 20
0
 40
20
  0
LINE
  5
B6
100
AcDbEntity
  8
osy
  6
ByLayer
 62
  256
370
   -1
100
AcDbLine
 10
0
 20
0
 11
-19.91858428704209
 21
-11.5
  0
LINE
  5
B7
100
AcDbEntity
  8
osy
  6
ByLayer
 62
  256
370
   -1
100
AcDbLine
 10
0
 20
0
 11
19.91858428704209
 21
-11.5
  0
CIRCLE
  5
B8
100
AcDbEntity
  8
obrysy
  6
ByLayer
 62
  256
370
   -1
100
AcDbCircle
 10
-17.32050807568877
 20
-9.999999999999996
 40
1
  0
CIRCLE
  5
B9
100
AcDbEntity
  8
obrysy
  6
ByLayer
 62
  256
370
   -1
100
AcDbCircle
 10
17.32050807568877
 20
-10.00000000000001
 40
1
  0
DIMENSION
  5
BA
100
AcDbEntity
  8
koty
  6
ByLayer
 62
  256
370
   -1
100
AcDbDimension
  2
*D1
 10
-19.91858428704209
 20
-11.5
 30
0
 11
0
 21
0
 31
0
 70
   34
 71
    5
 72
    0
  3
Standard
 53
0
210
0
220
0
230
1
100
AcDb2LineAngularDimension
 13
0
 23
-115
 33
0
 14
0
 24
115
 34
0
 15
0
 25
0
 35
0
 16
-16
 26
29
 36
0
  0
DIMENSION
  5
BB
100
AcDbEntity
  8
koty
  6
ByLayer
 62
  256
370
   -1
100
AcDbDimension
  2
*D2
 10
19.91858428704209
 20
-11.5
 30
0
 11
0
 21
0
 31
0
 70
   34
 71
    5
 72
    0
  3
Standard
 53
0
210
0
220
0
230
1
100
AcDb2LineAngularDimension
 13
0
 23
0
 33
0
 14
-19.91858428704209
 24
-11.5
 34
0
 15
0
 25
0
 35
0
 16
-28.5
 26
-16.9
 36
0
  0
DIMENSION
  5
BC
100
AcDbEntity
  8
koty
  6
ByLayer
 62
  256
370
   -1
100
AcDbDimension
  2
*D3
 10
-1.580895559241903
 20
-1.053930372827935
 30
0
 11
-1.040062867922305
 21
1.560094301883457
 31
0
 70
   35
  1
%%C4
 71
    5
 72
    0
  3
Standard
 53
0
210
0
220
0
230
1
100
AcDbDiametricDimension
 15
1.580895559241903
 25
1.053930372827935
 35
0
 40
0
  0
DIMENSION
  5
BD
100
AcDbEntity
  8
koty
  6
ByLayer
 62
  256
370
   -1
100
AcDbDimension
  2
*D4
 10
40
 20
-20
 30
0
 11
38
 21
6
 31
0
 70
   32
  1
%%C40
 71
    5
 72
    0
  3
Standard
 53
0
210
0
220
0
230
1
100
AcDbAlignedDimension
 13
0
 23
20
 33
0
 14
0
 24
-20
 34
0
 50
90
100
AcDbRotatedDimension
  0
DIMENSION
  5
BE
100
AcDbEntity
  8
koty
  6
ByLayer
 62
  256
370
   -1
100
AcDbDimension
  2
*D5
 10
-0.7071067811865477
 20
19.29289321881345
 30
0
 11
0
 21
23
 31
0
 70
   35
  1
%%C2
 71
    5
 72
    0
  3
Standard
 53
0
210
0
220
0
230
1
100
AcDbDiametricDimension
 15
0.7071067811865476
 25
20.70710678118655
 35
0
 40
0
  0
LINE
  5
BF
100
AcDbEntity
  8
osy
  6
ByLayer
 62
  256
370
   -1
100
AcDbLine
 10
0
 20
-25
 11
0
 21
115
  0
LINE
  5
C0
100
AcDbEntity
  8
osy
  6
ByLayer
 62
  256
370
   -1
100
AcDbLine
 10
0
 20
-115
 11
0
 21
-37
  0
ENDSEC
  0
SECTION
  2
OBJECTS
  0
DICTIONARY
  5
C
330
0
100
AcDbDictionary
281
    1
  3
ACAD_GROUP
350
D
  0
DICTIONARY
  5
D
330
C
100
AcDbDictionary
281
    1
  0
PLOTSETTINGS
  5
C1
100
AcDbPlotSettings
  6
1x1
 40
6.01
 41
6.39
 42
6.01
 43
6.35
  0
ENDSEC
  0
EOF
